<svg xmlns="http://www.w3.org/2000/svg" style="display:none"><symbol id="icon-bars" viewBox="0 0 24 28"><path d="M24 21v2q0 .406-.297.703T23 24H1q-.406 0-.703-.297T0 23v-2q0-.406.297-.703T1 20h22q.406 0 .703.297T24 21zm0-8v2q0 .406-.297.703T23 16H1q-.406 0-.703-.297T0 15v-2q0-.406.297-.703T1 12h22q.406 0 .703.297T24 13zm0-8v2q0 .406-.297.703T23 8H1q-.406 0-.703-.297T0 7V5q0-.406.297-.703T1 4h22q.406 0 .703.297T24 5z"/></symbol><symbol id="icon-close" viewBox="0 0 22 28"><path d="M20.281 20.656q0 .625-.438 1.062l-2.125 2.125q-.438.438-1.062.438t-1.062-.438L11 19.249l-4.594 4.594q-.438.438-1.062.438t-1.062-.438l-2.125-2.125q-.438-.438-.438-1.062t.438-1.062L6.751 15l-4.594-4.594q-.438-.438-.438-1.062t.438-1.062l2.125-2.125q.438-.438 1.062-.438t1.062.438L11 10.751l4.594-4.594q.438-.438 1.062-.438t1.062.438l2.125 2.125q.438.438.438 1.062t-.438 1.062L15.249 15l4.594 4.594q.438.438.438 1.062z"/></symbol><symbol id="icon-email-social" viewBox="0 0 32 32"><path d="M29 4H3C1.35 4 0 5.35 0 7v20c0 1.65 1.35 3 3 3h26c1.65 0 3-1.35 3-3V7c0-1.65-1.35-3-3-3zM12.461 17.199L4 23.789V8.113l8.461 9.086zM5.512 8h20.976L16 15.875 5.512 8zm7.278 9.553L16 21l3.21-3.447L25.79 26H6.211l6.58-8.447zm6.749-.354L28 8.113v15.676l-8.461-6.59z"/></symbol><symbol id="icon-instagram-social" viewBox="0 0 32 32"><path d="M16 2.881c4.275 0 4.781.019 6.462.094 1.563.069 2.406.331 2.969.55a4.952 4.952 0 0 1 1.837 1.194 5.015 5.015 0 0 1 1.2 1.838c.219.563.481 1.412.55 2.969.075 1.688.094 2.194.094 6.463s-.019 4.781-.094 6.463c-.069 1.563-.331 2.406-.55 2.969a4.94 4.94 0 0 1-1.194 1.837 5.02 5.02 0 0 1-1.837 1.2c-.563.219-1.413.481-2.969.55-1.688.075-2.194.094-6.463.094s-4.781-.019-6.463-.094c-1.563-.069-2.406-.331-2.969-.55a4.952 4.952 0 0 1-1.838-1.194 5.02 5.02 0 0 1-1.2-1.837c-.219-.563-.481-1.413-.55-2.969-.075-1.688-.094-2.194-.094-6.463s.019-4.781.094-6.463c.069-1.563.331-2.406.55-2.969a4.964 4.964 0 0 1 1.194-1.838 5.015 5.015 0 0 1 1.838-1.2c.563-.219 1.412-.481 2.969-.55 1.681-.075 2.188-.094 6.463-.094zM16 0c-4.344 0-4.887.019-6.594.094-1.7.075-2.869.35-3.881.744-1.056.412-1.95.956-2.837 1.85a7.833 7.833 0 0 0-1.85 2.831C.444 6.538.169 7.7.094 9.4.019 11.113 0 11.656 0 16s.019 4.887.094 6.594c.075 1.7.35 2.869.744 3.881.413 1.056.956 1.95 1.85 2.837a7.82 7.82 0 0 0 2.831 1.844c1.019.394 2.181.669 3.881.744 1.706.075 2.25.094 6.594.094s4.888-.019 6.594-.094c1.7-.075 2.869-.35 3.881-.744 1.05-.406 1.944-.956 2.831-1.844s1.438-1.781 1.844-2.831c.394-1.019.669-2.181.744-3.881.075-1.706.094-2.25.094-6.594s-.019-4.887-.094-6.594c-.075-1.7-.35-2.869-.744-3.881a7.506 7.506 0 0 0-1.831-2.844A7.82 7.82 0 0 0 26.482.843C25.463.449 24.301.174 22.601.099c-1.712-.081-2.256-.1-6.6-.1z"/><path d="M16 7.781c-4.537 0-8.219 3.681-8.219 8.219s3.681 8.219 8.219 8.219 8.219-3.681 8.219-8.219A8.221 8.221 0 0 0 16 7.781zm0 13.55a5.331 5.331 0 1 1 0-10.663 5.331 5.331 0 0 1 0 10.663zM26.462 7.456a1.919 1.919 0 1 1-3.838 0 1.919 1.919 0 0 1 3.838 0z"/></symbol><symbol id="icon-pinterest-social" viewBox="0 0 32 32"><path d="M16 2.138c-7.656 0-13.863 6.206-13.863 13.863 0 5.875 3.656 10.887 8.813 12.906-.119-1.094-.231-2.781.05-3.975.25-1.081 1.625-6.887 1.625-6.887s-.412-.831-.412-2.056c0-1.925 1.119-3.369 2.506-3.369 1.181 0 1.756.887 1.756 1.95 0 1.188-.756 2.969-1.15 4.613-.331 1.381.688 2.506 2.05 2.506 2.462 0 4.356-2.6 4.356-6.35 0-3.319-2.387-5.638-5.787-5.638-3.944 0-6.256 2.956-6.256 6.019 0 1.194.456 2.469 1.031 3.163a.408.408 0 0 1 .094.4c-.106.438-.338 1.381-.387 1.575-.063.256-.2.306-.463.188-1.731-.806-2.813-3.337-2.813-5.369 0-4.375 3.175-8.387 9.156-8.387 4.806 0 8.544 3.425 8.544 8.006 0 4.775-3.012 8.625-7.194 8.625-1.406 0-2.725-.731-3.175-1.594 0 0-.694 2.644-.863 3.294-.313 1.206-1.156 2.712-1.725 3.631 1.3.4 2.675.619 4.106.619 7.656 0 13.863-6.206 13.863-13.863 0-7.662-6.206-13.869-13.863-13.869z"/></symbol><symbol id="icon-twitter-social" viewBox="0 0 32 32"><path d="M32 7.075a12.941 12.941 0 0 1-3.769 1.031 6.601 6.601 0 0 0 2.887-3.631 13.21 13.21 0 0 1-4.169 1.594A6.565 6.565 0 0 0 22.155 4a6.563 6.563 0 0 0-6.563 6.563c0 .512.056 1.012.169 1.494A18.635 18.635 0 0 1 2.23 5.195a6.56 6.56 0 0 0-.887 3.3 6.557 6.557 0 0 0 2.919 5.463 6.565 6.565 0 0 1-2.975-.819v.081a6.565 6.565 0 0 0 5.269 6.437 6.574 6.574 0 0 1-2.968.112 6.588 6.588 0 0 0 6.131 4.563 13.17 13.17 0 0 1-9.725 2.719 18.568 18.568 0 0 0 10.069 2.95c12.075 0 18.681-10.006 18.681-18.681 0-.287-.006-.569-.019-.85A13.216 13.216 0 0 0 32 7.076z"/></symbol><symbol id="icon-vimeo-social" viewBox="0 0 32 32"><path d="M31.988 8.563c-.144 3.113-2.319 7.381-6.525 12.794-4.35 5.65-8.031 8.481-11.044 8.481-1.863 0-3.444-1.719-4.731-5.163-.863-3.156-1.719-6.313-2.581-9.469-.956-3.444-1.981-5.162-3.081-5.162-.237 0-1.075.506-2.513 1.506L.007 9.612A391.952 391.952 0 0 0 4.676 5.45C6.782 3.631 8.364 2.675 9.42 2.575c2.487-.237 4.025 1.463 4.6 5.106.619 3.931 1.05 6.375 1.294 7.331.719 3.263 1.506 4.894 2.369 4.894.669 0 1.675-1.056 3.019-3.175 1.337-2.113 2.056-3.725 2.156-4.831.194-1.825-.525-2.744-2.156-2.744-.769 0-1.556.175-2.369.525 1.575-5.15 4.575-7.65 9.012-7.506 3.281.087 4.831 2.219 4.644 6.388z"/></symbol></svg>